<?xml version="1.0" standalone="no"?><!DOCTYPE svg PUBLIC "-//W3C//DTD SVG 1.1//EN" "http://www.w3.org/Graphics/SVG/1.1/DTD/svg11.dtd"><svg t="1674016896155" class="icon" viewBox="0 0 1024 1024" version="1.1" xmlns="http://www.w3.org/2000/svg" p-id="7849" xmlns:xlink="http://www.w3.org/1999/xlink" width="200" height="200"><path d="M420.632822 882.777724c-36.910072 0-71.61414-14.374028-97.714191-40.472079-10.522021-10.522021-10.522021-27.582054 0-38.106074 10.522021-10.518021 27.582054-10.518021 38.106074 0 15.922031 15.924031 37.094072 24.692048 59.610117 24.692048s43.686085-8.768017 59.610116-24.692048l465.240909-465.238909c15.924031-15.922031 24.692048-37.094072 24.692048-59.610116s-8.768017-43.686085-24.692048-59.608117c-32.872064-32.874064-86.352169-32.872064-119.218233-0.002L567.065108 478.942935c-10.524021 10.518021-27.580054 10.518021-38.106075 0-10.522021-10.522021-10.522021-27.582054 0-38.106074L788.161539 181.630355c53.880105-53.874105 141.544276-53.880105 195.430382 0 53.880105 53.882105 53.880105 141.552276 0 195.432381l-465.240909 465.242909c-26.100051 26.100051-60.804119 40.472079-97.71819 40.472079z" fill="#00b26a" p-id="7850"></path><path d="M575.957125 742.58345l-78.662154 78.662154c-43.444085 43.444085-113.880222 43.444085-157.324307 0L59.462116 540.741056c-43.444085-43.444085-43.444085-113.880222 0-157.324307 43.444085-43.444085 113.880222-43.444085 157.324307 0l359.170702 359.166701z" fill="#00b26a" p-id="7851"></path><path d="M418.630818 880.77372c-36.914072 0-71.61414-14.374028-97.714191-40.472079L40.410079 559.793093c-53.880105-53.882105-53.880105-141.550276 0-195.432381 26.104051-26.100051 60.804119-40.472079 97.714191-40.472079 36.914072 0 71.61414 14.374028 97.714191 40.472079l359.170701 359.170701c10.522021 10.522021 10.522021 27.582054 0 38.106075l-78.662154 78.662153c-26.104051 26.098051-60.804119 40.474079-97.71619 40.474079zM138.12427 377.776738c-22.516044 0-43.686085 8.768017-59.610117 24.692048-32.868064 32.868064-32.868064 86.352169 0 119.222233L359.020701 802.193567c15.922031 15.924031 37.090072 24.692048 59.610117 24.692048 22.516044 0 43.686085-8.768017 59.610116-24.692048l59.610116-59.610117L197.732386 402.468786c-15.922031-15.924031-37.090072-24.692048-59.608116-24.692048z" fill="#00b26a" p-id="7852"></path></svg>