<?xml version="1.0" standalone="no"?><!DOCTYPE svg PUBLIC "-//W3C//DTD SVG 1.1//EN" "http://www.w3.org/Graphics/SVG/1.1/DTD/svg11.dtd"><svg t="1674011139097" class="icon" viewBox="0 0 1170 1024" version="1.1" xmlns="http://www.w3.org/2000/svg" p-id="3056" xmlns:xlink="http://www.w3.org/1999/xlink" width="228.515625" height="200"><path d="M512 692.553143c0-75.446857-18.285714-162.304-93.696-162.304-22.857143 22.857143-54.272 36.571429-89.161143 36.571428s-66.304-13.714286-89.161143-36.571428C164.534857 530.249143 146.285714 617.106286 146.285714 692.553143 146.285714 734.281143 173.714286 768 207.433143 768h243.419428C484.571429 768 512 734.281143 512 692.553143zM438.857143 438.857143a109.750857 109.750857 0 0 0-219.428572 0 109.750857 109.750857 0 0 0 219.428572 0z m585.142857 274.285714v-36.571428c0-10.276571-8.009143-18.285714-18.285714-18.285715h-402.285715c-10.276571 0-18.285714 8.009143-18.285714 18.285715v36.571428c0 10.276571 8.009143 18.285714 18.285714 18.285714h402.285715c10.276571 0 18.285714-8.009143 18.285714-18.285714z m-219.428571-146.285714v-36.571429c0-10.276571-8.009143-18.285714-18.285715-18.285714h-182.857143c-10.276571 0-18.285714 8.009143-18.285714 18.285714v36.571429c0 10.276571 8.009143 18.285714 18.285714 18.285714h182.857143c10.276571 0 18.285714-8.009143 18.285715-18.285714z m219.428571 0v-36.571429c0-10.276571-8.009143-18.285714-18.285714-18.285714h-109.714286c-10.276571 0-18.285714 8.009143-18.285714 18.285714v36.571429c0 10.276571 8.009143 18.285714 18.285714 18.285714h109.714286c10.276571 0 18.285714-8.009143 18.285714-18.285714z m0-146.285714v-36.571429c0-10.276571-8.009143-18.285714-18.285714-18.285714h-402.285715c-10.276571 0-18.285714 8.009143-18.285714 18.285714v36.571429c0 10.276571 8.009143 18.285714 18.285714 18.285714h402.285715c10.276571 0 18.285714-8.009143 18.285714-18.285714zM73.142857 219.428571h1024V164.571429c0-10.276571-8.009143-18.285714-18.285714-18.285715h-987.428572c-10.276571 0-18.285714 8.009143-18.285714 18.285715V219.428571z m1097.142857-54.857142v694.857142c0 50.285714-41.142857 91.428571-91.428571 91.428572h-987.428572A91.684571 91.684571 0 0 1 0 859.428571v-694.857142C0 114.285714 41.142857 73.142857 91.428571 73.142857h987.428572C1129.142857 73.142857 1170.285714 114.285714 1170.285714 164.571429z" fill="#cdcdcd" p-id="3057"></path></svg>