<?xml version="1.0" standalone="no"?><!DOCTYPE svg PUBLIC "-//W3C//DTD SVG 1.1//EN" "http://www.w3.org/Graphics/SVG/1.1/DTD/svg11.dtd"><svg t="1674098387745" class="icon" viewBox="0 0 1024 1024" version="1.1" xmlns="http://www.w3.org/2000/svg" p-id="2710" xmlns:xlink="http://www.w3.org/1999/xlink" width="200" height="200"><path d="M473.946312 173.781952c0-29.457916 24.090675-53.597709 53.54859-53.597709 29.458939 0 53.597709 24.139793 53.597709 53.597709l0 294.681486c0 29.457916-24.13877 53.597709-53.597709 53.597709-29.457916 0-53.54859-24.139793-53.54859-53.597709L473.946312 173.781952 473.946312 173.781952z" fill="#e4260d" p-id="2711"></path><path d="M527.494902 870.388437c-192.31812 0-348.278171-155.964144-348.278171-348.279195 0-144.880715 88.524173-269.019013 214.387765-321.529971l0 121.033587c-64.681138 43.25106-107.195418 116.850311-107.195418 200.496383 0 133.151579 107.932198 241.131873 241.135966 241.131873 133.251863 0 241.185085-107.928105 241.185085-241.131873 0-83.59593-42.612517-157.193135-107.293655-200.496383L661.436474 200.530153c125.960807 52.511981 214.388788 176.650279 214.388788 321.530994C875.824239 714.424292 719.863165 870.388437 527.494902 870.388437L527.494902 870.388437z" fill="#e4260d" p-id="2712"></path></svg>