<?xml version="1.0" standalone="no"?><!DOCTYPE svg PUBLIC "-//W3C//DTD SVG 1.1//EN" "http://www.w3.org/Graphics/SVG/1.1/DTD/svg11.dtd"><svg t="1674098438937" class="icon" viewBox="0 0 1024 1024" version="1.1" xmlns="http://www.w3.org/2000/svg" p-id="3098" xmlns:xlink="http://www.w3.org/1999/xlink" width="200" height="200"><path d="M512 51.2c256 0 460.8 204.8 460.8 460.8S768 972.8 512 972.8 51.2 768 51.2 512 256 51.2 512 51.2M512 0C230.4 0 0 230.4 0 512s230.4 512 512 512 512-230.4 512-512S793.6 0 512 0L512 0 512 0z" p-id="3099"></path><path d="M825.6 512c0 32-25.6 64-64 64L256 576C224 576 192 550.4 192 512l0 0c0-32 25.6-64 64-64l512 0C800 448 825.6 480 825.6 512L825.6 512 825.6 512z" p-id="3100"></path></svg>