<?xml version="1.0" standalone="no"?><!DOCTYPE svg PUBLIC "-//W3C//DTD SVG 1.1//EN" "http://www.w3.org/Graphics/SVG/1.1/DTD/svg11.dtd"><svg t="1674131842653" class="icon" viewBox="0 0 1267 1024" version="1.1" xmlns="http://www.w3.org/2000/svg" p-id="3886" xmlns:xlink="http://www.w3.org/1999/xlink" width="247.4609375" height="200"><path d="M304.11782 618.427208a304.11782 304.11782 0 1 1 304.11782-304.11782 305.022933 305.022933 0 0 1-304.11782 304.11782z m0-506.863034a202.745213 202.745213 0 1 0 202.745214 202.745214 203.378792 203.378792 0 0 0-202.745214-202.745214z m253.431517 658.921944H50.686303a50.686303 50.686303 0 0 1 0-101.372607h506.863034a50.686303 50.686303 0 0 1 0 101.372607z" fill="#999999" p-id="3887"></path><path d="M304.11782 1023.917635a47.880454 47.880454 0 0 1-50.686303-50.686304v-405.490427a50.686303 50.686303 0 0 1 101.372607 0v405.490427a47.880454 47.880454 0 0 1-50.686304 50.686304z m658.921944 0A304.11782 304.11782 0 1 1 1267.157584 719.799815a305.022933 305.022933 0 0 1-304.11782 304.11782z m0-506.863034a202.745213 202.745213 0 1 0 202.745213 202.745214 203.378792 203.378792 0 0 0-202.745213-202.745214z" fill="#999999" p-id="3888"></path><path d="M963.039764 517.054601a47.880454 47.880454 0 0 1-50.686303-50.686303V60.877871a50.686303 50.686303 0 0 1 101.372606 0V466.187275a47.880454 47.880454 0 0 1-50.686303 50.686304z" fill="#999999" p-id="3889"></path><path d="M1175.922238 314.309388a45.979718 45.979718 0 0 1-35.480412-15.205891l-177.402062-177.402062-177.402062 177.402062a50.143236 50.143236 0 1 1-70.960825-70.960825L927.559352 15.260198a48.96659 48.96659 0 0 1 70.960824 0l212.882474 212.882474a48.96659 48.96659 0 0 1 0 70.960825 39.462908 39.462908 0 0 1-35.480412 15.205891z" fill="#999999" p-id="3890"></path></svg>