<?xml version="1.0" standalone="no"?><!DOCTYPE svg PUBLIC "-//W3C//DTD SVG 1.1//EN" "http://www.w3.org/Graphics/SVG/1.1/DTD/svg11.dtd"><svg t="1674131875053" class="icon" viewBox="0 0 1024 1024" version="1.1" xmlns="http://www.w3.org/2000/svg" p-id="4769" xmlns:xlink="http://www.w3.org/1999/xlink" width="200" height="200"><path d="M1001.73913 997.064348c0 14.870261-12.866783 26.935652-28.805565 26.935652-15.938783 0-28.805565-12.065391-28.805565-26.935652 0-222.920348-193.847652-404.21287-432.128-404.21287-238.280348 0-432.128 181.292522-432.128 404.21287 0 14.870261-12.866783 26.935652-28.805565 26.935652C35.127652 1024 22.26087 1011.934609 22.26087 997.064348c0-205.868522 145.942261-380.393739 346.112-437.915826-102.355478-49.241043-173.278609-147.901217-173.278609-262.722783C195.094261 132.986435 337.252174 0 512 0c174.747826 0 316.905739 132.986435 316.905739 296.425739 0 114.821565-70.92313 213.481739-173.278609 262.722783C855.79687 616.670609 1001.73913 791.195826 1001.73913 997.064348zM771.294609 296.425739c0-133.743304-116.335304-242.554435-259.294609-242.554435S252.705391 162.682435 252.705391 296.425739c0 133.743304 116.335304 242.509913 259.294609 242.509913s259.294609-108.766609 259.294609-242.509913z" fill="#707070" p-id="4770"></path></svg>