<?xml version="1.0" standalone="no"?><!DOCTYPE svg PUBLIC "-//W3C//DTD SVG 1.1//EN" "http://www.w3.org/Graphics/SVG/1.1/DTD/svg11.dtd"><svg t="1674181804174" class="icon" viewBox="0 0 1024 1024" version="1.1" xmlns="http://www.w3.org/2000/svg" p-id="4647" xmlns:xlink="http://www.w3.org/1999/xlink" width="200" height="200"><path d="M838.826667 81.493333h-79.189334C743.594667 33.109333 698.368 0.426667 647.338667 0.426667H372.138667c-52.224 0-96.682667 33.962667-112.298667 81.066666h-79.189333c-60.416 0-109.568 49.152-109.568 109.568V913.066667c0 60.416 49.152 109.568 109.568 109.568H838.826667c60.416 0 109.568-49.152 109.568-109.568V191.061333c-0.085333-60.501333-49.152-109.568-109.568-109.568z m-466.688-8.192h275.285333c25.002667 0 45.226667 20.224 45.226667 45.226667 0 25.002667-20.224 45.226667-45.226667 45.226667H372.138667c-25.002667 0-45.226667-20.224-45.226667-45.226667 0-25.002667 20.224-45.226667 45.226667-45.226667zM875.008 913.066667c0 20.309333-16.384 36.608-36.608 36.608H180.650667c-20.309333 0-36.608-16.384-36.608-36.608V191.061333c0-20.309333 16.384-36.608 36.608-36.608h78.762666c15.616 48.981333 61.184 82.261333 112.64 82.261334h275.285334c52.650667 0 97.450667-34.730667 112.64-82.261334h78.762666c20.309333 0 36.608 16.384 36.608 36.608V913.066667h-0.341333z m0 0" p-id="4648" fill="#2c2c2c"></path><path d="M443.477333 653.056v-1.536c-1.962667-19.541333-3.157333-37.802667-3.157333-54.613333V432.554667a24.405333 24.405333 0 1 1 48.810667 0v247.978666c0 18.176-14.762667 32.853333-32.853334 32.853334-10.922667 0-21.077333-5.376-27.221333-14.421334-53.930667-79.274667-93.866667-138.410667-120.064-177.408-10.922667-18.688-20.309333-36.266667-28.074667-52.992h-1.194666c3.157333 17.578667 4.266667 37.802667 4.266666 60.416v160.256c0 13.312-10.837333 24.149333-24.149333 24.149334s-24.149333-10.837333-24.149333-24.149334v-247.466666c0-18.602667 15.104-33.621333 33.621333-33.621334 11.178667 0 21.589333 5.546667 27.818667 14.762667 52.906667 77.994667 91.733333 136.618667 116.650666 175.530667 10.922667 15.616 20.736 33.962667 29.696 54.613333z m253.354667-250.709333c93.610667 5.802667 143.530667 58.453333 150.528 157.866666-3.157333 102.144-54.186667 154.794667-153.258667 157.866667-96.256-5.034667-146.602667-56.917333-150.528-156.330667 5.12-101.717333 56.234667-154.709333 153.258667-159.402666z m-4.266667 274.090666c65.877333-3.157333 99.84-41.301333 101.717334-115.029333-5.034667-70.997333-37.802667-109.141333-98.56-115.029333-62.805333 5.034667-96.341333 43.264-100.181334 115.029333 2.730667 71.765333 35.072 110.336 97.024 115.029333z m0 0" p-id="4649" fill="#2c2c2c"></path></svg>