<?xml version="1.0" standalone="no"?><!DOCTYPE svg PUBLIC "-//W3C//DTD SVG 1.1//EN" "http://www.w3.org/Graphics/SVG/1.1/DTD/svg11.dtd"><svg t="1674116712199" class="icon" viewBox="0 0 1024 1024" version="1.1" xmlns="http://www.w3.org/2000/svg" p-id="16873" xmlns:xlink="http://www.w3.org/1999/xlink" width="200" height="200"><path d="M224.128 155.52C380.16 2.656 631.808-0.512 791.68 147.68l8.16 7.776a394.176 394.176 0 0 1 0 565.6L512 1002.944l-287.872-281.856a394.176 394.176 0 0 1 0-565.6zM512 275.2a168.544 168.544 0 1 0 0 337.056A168.544 168.544 0 0 0 512 275.2z m0 64a104.544 104.544 0 1 1 0 209.056 104.544 104.544 0 0 1 0-209.056z" fill="#df250d" p-id="16874"></path></svg>