<?xml version="1.0" standalone="no"?><!DOCTYPE svg PUBLIC "-//W3C//DTD SVG 1.1//EN" "http://www.w3.org/Graphics/SVG/1.1/DTD/svg11.dtd"><svg t="1674181674172" class="icon" viewBox="0 0 1024 1024" version="1.1" xmlns="http://www.w3.org/2000/svg" p-id="2738" xmlns:xlink="http://www.w3.org/1999/xlink" width="200" height="200"><path d="M191.829333 779.136c-10.112 31.616-16.298667 56.362667-18.517333 74.197333h677.376c-2.218667-17.834667-8.405333-42.581333-18.517333-74.197333a8.533333 8.533333 0 0 1 8.106666-11.136h68.693334a12.8 12.8 0 0 1 12.458666 9.984c11.52 50.773333 17.237333 90.069333 17.237334 118.016 0 7.466667-0.426667 17.664-1.28 30.72a12.8 12.8 0 0 1-12.8 11.946667H99.413333a12.8 12.8 0 0 1-12.8-11.946667C85.76 913.621333 85.333333 903.424 85.333333 896c0-27.946667 5.76-67.285333 17.237334-118.016A12.8 12.8 0 0 1 115.072 768h68.650667a8.533333 8.533333 0 0 1 8.106666 11.136z m230.613334-305.493333l79.658666-79.658667a21.333333 21.333333 0 0 1 30.165334 0l30.165333 30.165333a21.333333 21.333333 0 0 1 0 30.165334l-79.658667 79.658666 110.293334 146.688 159.402666-474.624L276.053333 363.648l146.346667 109.994667zM166.186667 387.712a46.933333 46.933333 0 0 1 13.44-82.048l618.965333-204.757333a46.933333 46.933333 0 0 1 59.221333 59.52L650.666667 776.96a46.933333 46.933333 0 0 1-82.005334 13.226667l-172.8-229.76-229.717333-172.757334z" fill="#2c2c2c" p-id="2739"></path></svg>