<?xml version="1.0" standalone="no"?><!DOCTYPE svg PUBLIC "-//W3C//DTD SVG 1.1//EN" "http://www.w3.org/Graphics/SVG/1.1/DTD/svg11.dtd"><svg t="1674048660085" class="icon" viewBox="0 0 1024 1024" version="1.1" xmlns="http://www.w3.org/2000/svg" p-id="22395" xmlns:xlink="http://www.w3.org/1999/xlink" width="200" height="200"><path d="M467.2 713.92c-26.752-14.72-44.8-42.304-44.8-73.92 0-47.104 40.128-85.312 89.6-85.312 49.472 0 89.6 38.208 89.6 85.312 0 31.616-18.048 59.136-44.8 73.92v115.968a44.8 44.8 0 0 1-89.6 0v-115.968zM243.2 384h448V256c0-94.272-80.256-170.688-179.2-170.688-98.944 0-179.2 76.416-179.2 170.688H243.2c0-141.44 120.32-256 268.8-256 148.48 0 268.8 114.56 268.8 256v128H960v640H64V384h179.2zM153.6 469.312v469.376h716.8V469.312H153.6z" fill="#1afa29" p-id="22396"></path></svg>