<?xml version="1.0" standalone="no"?><!DOCTYPE svg PUBLIC "-//W3C//DTD SVG 1.1//EN" "http://www.w3.org/Graphics/SVG/1.1/DTD/svg11.dtd"><svg t="1674114753824" class="icon" viewBox="0 0 1024 1024" version="1.1" xmlns="http://www.w3.org/2000/svg" p-id="14057" width="200" height="200" xmlns:xlink="http://www.w3.org/1999/xlink"><path d="M401.913 85.206c80.166-11.77 146.375-11.35 219.67 0 50.147 11.072 100.964 19.73 150.28 33.997 36.51 10.56 62.893 36.383 75.934 75.828 20.723 62.322 42.441 124.272 65.292 185.744 3.882 10.285 16.515 25.418 23.606 24.614 48.044-5.648 70.653 22.193 85.336 63.38 3.53 12.618 1.564 25.257 0 33.604-20.016 5.792-40.04 11.52-58.443 16.795 2.586 21.696 7.275 43.73 7.382 65.753 0.807 100.464 1.398 200.966-0.537 301.44-0.323 17.924-10.268 45.821-17.192 50.346-6.552 11.742-152.384 11.181-163.733 3.034-37.883-25.655-14.574-68.69-26.724-103.613h-495.47c-9.59 36.94-15.304 98.976-26.868 103.613-25.219 10.114-160.41 10.483-167.955 0-10.24-7.559-17.19-38.012-18.54-57.567-2.805-42.316-1.184-84.957-0.784-127.47 0.758-78.924 1.89-157.84 2.885-237.3-14.198-3.882-34.408-9.47-54.62-15.056-1.105-7.562-2.557-16.8 0-26.889 14.043-43.488 34.574-77.065 87.2-70.07 6.362 0.838 18.081-13.325 21.556-22.817 17.975-49.109 37.27-98.136 50.118-148.822 21.534-85.221 80.57-119.494 155.943-134.607 28.374-5.648 57.127-9.361 85.664-13.937zM175.67 421.74c227.727 49.142 445.992 50.292 669.895 0-18.81-60.41-37.676-114.063-51.874-168.964-12.235-47.148-41.497-70.362-85.075-72.388-106.194-4.962-212.414-8.926-318.642-9.773-34.975-0.28-70.46 8.342-104.79 16.882-14.15 3.546-32.77 14.784-37.593 27.423-25.33 66.001-46.945 133.623-71.92 206.82z m43.71 256.796c0.078-1.29-0.055 1.267 0 0 18.212 0 37.376-0.67 54.698-4.888 12.585-3.07 28.535-13.712 32.527-24.978 2.801-8.005-9.272-28.543-19.27-33.352-41.605-20.11-84.34-38.352-127.942-53.265-21.719-7.448-45.916-6.043-52.922 26.241-10.212 47.199-0.67 73.524 33.198 80.88 26.056 5.65 53.088 6.435 79.71 9.362z m590.074-0.149c23.523-2.944 52.68-4.035 80.596-10.81 38.157-9.126 30.1-42.705 29.21-71.133-0.755-24.34-15.253-42.623-36.272-35.804-52.543 17.002-104.714 37.038-154.156 62.045-22.718 11.515-14.583 43.263 11.261 49.165 20.695 4.691 42.493 4.246 69.36 6.537z" fill="#2c2c2c" p-id="14058"></path></svg>