<?xml version="1.0" standalone="no"?><!DOCTYPE svg PUBLIC "-//W3C//DTD SVG 1.1//EN" "http://www.w3.org/Graphics/SVG/1.1/DTD/svg11.dtd"><svg t="1674008745106" class="icon" viewBox="0 0 1024 1024" version="1.1" xmlns="http://www.w3.org/2000/svg" p-id="2289" xmlns:xlink="http://www.w3.org/1999/xlink" width="200" height="200"><path d="M508.074667 46.592a42.666667 42.666667 0 0 1 42.368 37.674667l0.298666 4.992v40.661333a384.085333 384.085333 0 0 1 344.917334 365.824h35.157333a42.666667 42.666667 0 0 1 4.992 85.077333l-4.992 0.256h-41.002667a384.213333 384.213333 0 0 1-339.029333 313.002667v36.736a42.666667 42.666667 0 0 1-85.077333 4.992l-0.298667-4.992v-37.632a384.256 384.256 0 0 1-331.221333-312.064H85.333333a42.666667 42.666667 0 0 1-4.992-85.077333L85.333333 495.744h43.008a384.085333 384.085333 0 0 1 337.066667-364.928v-41.557333a42.666667 42.666667 0 0 1 42.666667-42.666667z m42.154666 169.173333l-0.597333 3.413334a42.666667 42.666667 0 0 1-83.584-2.304A298.666667 298.666667 0 0 0 213.76 496.64a42.581333 42.581333 0 0 1 7.04 81.664 298.88 298.88 0 0 0 245.290667 228.906667 42.666667 42.666667 0 0 1 84.266666 1.024 298.837333 298.837333 0 0 0 252.501334-227.925334 42.666667 42.666667 0 0 1 2.858666-84.224l4.565334-0.256a298.752 298.752 0 0 0-260.010667-280.021333zM512 384a128 128 0 1 1 0 256 128 128 0 0 1 0-256z" fill="#667082" p-id="2290"></path></svg>