<?xml version="1.0" standalone="no"?><!DOCTYPE svg PUBLIC "-//W3C//DTD SVG 1.1//EN" "http://www.w3.org/Graphics/SVG/1.1/DTD/svg11.dtd"><svg t="1674007150962" class="icon" viewBox="0 0 1024 1024" version="1.1" xmlns="http://www.w3.org/2000/svg" p-id="7720" xmlns:xlink="http://www.w3.org/1999/xlink" width="200" height="200"><path d="M633.344 853.333333H277.333333C218.496 853.333333 170.666667 805.504 170.666667 746.666667S218.496 640 277.333333 640h298.666667c82.346667 0 149.333333-66.986667 149.333333-149.333333S658.346667 341.333333 576 341.333333H368.597333a418.645333 418.645333 0 0 1-57.770666 85.333334H576c35.285333 0 64 28.714667 64 64s-28.714667 64-64 64h-298.666667C171.477333 554.666667 85.333333 640.810667 85.333333 746.666667S171.477333 938.666667 277.333333 938.666667h409.301334a444.373333 444.373333 0 0 1-53.290667-85.333334zM213.333333 85.333333C142.762667 85.333333 85.333333 142.762667 85.333333 213.333333c0 136.021333 128 213.333333 128 213.333334s128-77.354667 128-213.333334c0-70.570667-57.429333-128-128-128z m0 192a64 64 0 1 1 0.042667-128.042666A64 64 0 0 1 213.333333 277.333333z" p-id="7721" fill="#bfbfbf"></path><path d="M810.666667 597.333333c-70.570667 0-128 57.429333-128 128 0 136.021333 128 213.333333 128 213.333334s128-77.354667 128-213.333334c0-70.570667-57.429333-128-128-128z m0 192a64 64 0 1 1 0.042666-128.042666A64 64 0 0 1 810.666667 789.333333z" p-id="7722" fill="#bfbfbf"></path></svg>