<?xml version="1.0" standalone="no"?><!DOCTYPE svg PUBLIC "-//W3C//DTD SVG 1.1//EN" "http://www.w3.org/Graphics/SVG/1.1/DTD/svg11.dtd"><svg t="1674191899770" class="icon" viewBox="0 0 1062 1024" version="1.1" xmlns="http://www.w3.org/2000/svg" p-id="6747" xmlns:xlink="http://www.w3.org/1999/xlink" width="207.421875" height="200"><path d="M416.969697 96.969697c75.377778-11.248485 151.919192-11.248485 227.167677 0 53.010101 10.60202 105.890909 19.006061 155.668687 32.840404 36.977778 9.438384 66.585859 37.236364 78.351515 73.567677 21.591919 60.767677 44.088889 120.888889 67.749495 180.622222 4.266667 10.084848 16.937374 24.953535 24.30707 23.789899 42.020202-7.111111 81.971717 20.686869 89.987879 62.448485 2.715152 10.731313 2.715152 22.109091 0 32.840404l-60.379798 16.420202c3.749495 21.074747 6.206061 42.278788 7.369697 63.612121v293.365657c-0.646465 17.713131-6.981818 34.779798-17.971717 48.743434-55.854545 10.731313-113.260606 11.894949-169.50303 3.232323-39.175758-24.953535-14.868687-66.715152-27.539394-100.589899H277.721212c-10.084848 36.072727-15.90303 96.323232-27.539394 100.589899-57.406061 10.084848-116.234343 10.084848-173.640404 0-12.153535-16.161616-18.876768-35.814141-19.00606-56.113131-3.232323-42.408081-3.232323-82.618182-3.232324-123.862626 0-76.8 0-153.6 3.232324-230.917172l-56.113132-14.868687c-1.810101-8.533333-1.810101-17.454545 0-25.987879 15.90303-42.408081 37.107071-75.248485 91.668687-70.464646 6.335354 0 18.488889-12.670707 22.238384-22.238384 20.29899-47.191919 37.882828-95.418182 53.010101-144.549495C188.379798 166.917172 251.862626 114.682828 326.981818 108.606061c29.090909-5.30101 59.345455-9.050505 88.436364-13.834344l1.551515 2.19798z m-234.020202 327.240404c228.331313 48.355556 464.290909 48.355556 692.751515 0-19.652525-58.828283-39.175758-111.191919-53.010101-164.20202-8.40404-41.632323-45.381818-71.240404-87.919192-70.464647-109.640404-4.783838-219.79798-8.533333-329.438384-9.567676-35.814141 1.422222-71.369697 6.852525-105.890909 16.420202-15.90303 3.232323-29.866667 12.8-38.658586 26.50505-29.737374 64.258586-51.975758 130.456566-77.834343 201.309091z m44.993939 250.052525c19.006061 1.034343 38.012121 0 56.630303-3.232323 14.610101-3.361616 27.151515-12.8 34.39192-25.987879 2.715152-7.886869-9.567677-27.539394-20.169697-32.323232-43.054545-20.169697-87.272727-37.882828-132.39596-53.010101-22.238384-7.369697-47.709091-5.818182-53.010101 25.470707-10.60202 46.028283 0 71.49899 34.391919 78.868687 27.022222 5.30101 53.010101 6.335354 82.618182 9.050505l-2.456566 1.163636z m610.521212 0c27.927273-1.939394 55.59596-5.559596 83.135354-10.60202 39.692929-9.050505 31.288889-41.244444 30.125253-69.430303-1.034343-28.056566-15.90303-41.244444-37.624243-34.909091-54.432323 16.161616-107.442424 36.331313-158.90101 60.379798-23.272727 11.119192-14.868687 41.890909 11.636364 47.709091 23.660606 3.620202 47.579798 5.688889 71.49899 6.335354v0.517171z m0 0" p-id="6748" fill="#515151"></path></svg>