<?xml version="1.0" standalone="no"?><!DOCTYPE svg PUBLIC "-//W3C//DTD SVG 1.1//EN" "http://www.w3.org/Graphics/SVG/1.1/DTD/svg11.dtd"><svg t="1674193515600" class="icon" viewBox="0 0 1024 1024" version="1.1" xmlns="http://www.w3.org/2000/svg" p-id="7430" xmlns:xlink="http://www.w3.org/1999/xlink" width="200" height="200"><path d="M-664.554667 249.408" fill="#515151" p-id="7431"></path><path d="M-664.554667 249.408" p-id="7432" fill="#515151"></path><path d="M597.973333 640.896l0 83.946667L298.24 724.842667l0-83.946667L597.973333 640.896zM809.749333 852.672 809.749333 385.066667 214.250667 385.066667l0 467.605333L809.749333 852.672zM809.749333 171.285333c45.952 0 85.952 39.978667 85.952 85.952l0 595.498667c0 45.952-39.978667 85.952-85.952 85.952L214.250667 938.688c-47.957333 0-85.952-39.978667-85.952-85.952L128.298667 257.216c0-45.952 37.973333-85.952 85.952-85.952l41.941333 0L256.192 85.333333l85.952 0 0 85.952 339.712 0L681.856 85.333333l85.952 0 0 85.952L809.749333 171.285333zM725.845333 469.013333l0 85.952L298.24 554.965333l0-85.952L725.845333 469.013333z" p-id="7433" fill="#515151"></path></svg>