<?xml version="1.0" standalone="no"?><!DOCTYPE svg PUBLIC "-//W3C//DTD SVG 1.1//EN" "http://www.w3.org/Graphics/SVG/1.1/DTD/svg11.dtd"><svg t="1674191878080" class="icon" viewBox="0 0 1024 1024" version="1.1" xmlns="http://www.w3.org/2000/svg" p-id="5694" xmlns:xlink="http://www.w3.org/1999/xlink" width="200" height="200"><path d="M971.434667 236.356267L778.615467 43.537067C739.8912 4.8128 696.661333 4.8128 670.0032 31.470933l-642.218667 642.218667a68.266667 68.266667 0 0 0 0 96.546133L220.6208 963.072a68.266667 68.266667 0 0 0 96.546133 0l642.218667-642.218667c26.641067-26.6752 26.641067-69.905067 12.049067-84.497066zM304.1792 879.496533a34.133333 34.133333 0 0 1-48.264533 0l-29.2864-29.2864a34.133333 34.133333 0 1 1 48.264533-48.264533l29.2864 29.2864a34.133333 34.133333 0 0 1 0 48.264533z m111.5648-111.5648a34.133333 34.133333 0 0 1-48.264533 0l-79.684267-79.684266a34.133333 34.133333 0 1 1 48.264533-48.264534l79.684267 79.684267a34.133333 34.133333 0 0 1 0 48.264533z m116.667733-116.667733a34.133333 34.133333 0 0 1-48.264533 0l-29.2864-29.2864a34.133333 34.133333 0 1 1 48.264533-48.264533l29.2864 29.2864a34.133333 34.133333 0 0 1 0 48.264533z m111.581867-111.581867a34.133333 34.133333 0 0 1-48.264533 0l-79.684267-79.684266a34.133333 34.133333 0 1 1 48.264533-48.264534l79.684267 79.684267a34.133333 34.133333 0 0 1 0 48.264533z m120.251733-120.2688a34.133333 34.133333 0 0 1-48.264533 0l-29.2864-29.2864a34.133333 34.133333 0 1 1 48.264533-48.264533l29.2864 29.2864a34.133333 34.133333 0 0 1 0 48.264533z m111.581867-111.5648a34.133333 34.133333 0 0 1-48.264533 0l-79.684267-79.684266a34.133333 34.133333 0 1 1 48.264533-48.264534l79.684267 79.684267a34.133333 34.133333 0 0 1 0 48.264533zM957.934933 419.549867L424.516267 952.968533c-21.504 21.504-6.280533 58.2656 24.132266 58.2656h499.285334a68.266667 68.266667 0 0 0 68.266666-68.266666V443.682133c0-30.4128-36.7616-45.636267-58.2656-24.132266z m-44.1344 455.150933a34.133333 34.133333 0 0 1-34.133333 34.133333H654.677333c-15.2064 0-22.818133-18.3808-12.066133-29.1328l242.0736-242.0736c10.752-10.752 29.1328-3.140267 29.1328 12.066134v225.006933z" fill="#515151" p-id="5695"></path></svg>