<?xml version="1.0" standalone="no"?><!DOCTYPE svg PUBLIC "-//W3C//DTD SVG 1.1//EN" "http://www.w3.org/Graphics/SVG/1.1/DTD/svg11.dtd"><svg t="1674191924971" class="icon" viewBox="0 0 1024 1024" version="1.1" xmlns="http://www.w3.org/2000/svg" p-id="7759" xmlns:xlink="http://www.w3.org/1999/xlink" width="200" height="200"><path d="M498.379631 38.154599C499.8771 38.154599 501.732455 37.408231 504.003551 35.942391 508.491922 32.896402 514.530233 27.663755 522.009507 20.189315 531.011813 11.967162 539.983173 5.926286 548.959916 2.191756 557.962222-1.605981 569.98772-0.440033 584.939538 5.569912 592.476666 7.780776 598.430216 10.949142 602.945497 15.077701 607.459431 19.200881 611.768859 23.146547 615.926254 26.913353 620.025793 30.590057 624.508784 33.789354 629.418276 36.421142 634.263187 39.052931 640.454879 40.339911 647.927426 40.339911 655.469934 40.339911 661.839223 39.23179 667.043366 37.019581 672.309398 34.750891 677.391107 32.686612 682.236018 30.832122 687.14013 28.945357 691.986387 27.632825 696.894532 26.913353 701.740789 26.109158 707.569214 26.913353 714.300425 29.129596 721.837553 32.119103 726.861407 36.421142 729.494423 42.042438 732.127439 47.662388 732.874156 53.493475 731.707664 59.503419 730.599026 65.450158 727.97139 71.460103 723.871851 77.437773 719.714456 83.510924 714.627366 88.290369 708.677853 92.088107 694.408168 101.087558 683.550508 110.233594 676.076617 119.652626 668.540835 129.008453 661.061562 138.935822 653.583633 149.426667 649.782781 154.690243 645.688621 160.64236 641.200251 167.424225 636.713224 174.153643 632.555829 180.908611 628.818212 187.638028 624.329841 195.860181 619.45802 203.750167 614.224278 211.282433L381.431728 211.282433C376.171078 202.284326 370.905044 193.642593 365.669958 185.421786 361.156024 177.888173 356.278821 170.419112 351.043733 162.943327 345.777701 155.409714 341.294712 148.680297 337.553057 142.734904 330.04822 131.461381 321.612341 121.538046 312.221207 112.896314 302.828724 104.254581 293.679765 96.60128 284.676114 89.844968 274.954 83.12093 268.194535 73.97086 264.425973 62.281792 260.684317 50.715102 264.037141 40.786387 274.565171 32.507752 279.798913 28.829704 285.779371 27.302002 292.569781 28.079301 299.302339 28.829704 306.450635 30.295544 313.92318 32.507752 321.433398 34.776443 328.73373 37.051857 335.849735 39.294996 342.965742 41.563686 349.5207 41.921405 355.532104 40.397738 366.027842 38.18553 373.895946 34.26676 379.129689 28.588983 384.395723 22.967687 393.399374 16.03386 406.107007 7.811706 415.86141 1.803106 426.71369-0.261174 438.739187 1.624247 450.764686 3.504288 459.734702 7.455332 465.721887 13.433002 468.738353 17.230738 471.912234 20.366829 475.291967 22.998618 478.639409 25.568545 482.198084 28.079301 485.939739 30.295544 489.733866 33.252775 493.89126 35.916839 498.379631 38.154599L498.379631 38.154599ZM625.439824 262.941872C634.44213 274.903935 645.715529 288.057498 659.206207 302.288251 670.421753 315.022233 684.328169 329.431846 700.809749 345.548021 717.291327 361.66016 736.432831 378.700217 758.180443 396.697775 776.186399 412.394369 794.758784 430.959438 813.842435 452.333809 832.92474 473.709525 849.643116 498.646291 863.907419 527.075523 878.117903 555.563926 888.109104 588.332851 893.70073 625.405163 899.32465 662.533954 898.368046 703.939233 890.888771 749.651932 884.099707 787.138443 870.786628 822.535123 850.930698 855.871556 831.070731 889.265818 804.661187 918.294833 771.665739 942.989534 738.644728 967.742063 699.464313 987.415252 654.119116 1002.029276 608.779303 1016.64868 557.274703 1023.914674 499.515178 1023.914674 440.294511 1023.914674 387.833309 1015.515005 342.072373 998.625568 296.307401 981.732095 257.546764 959.846697 225.629008 932.881962 193.806778 905.91857 168.505874 875.722261 149.749164 842.385826 130.997836 809.054771 118.614451 775.870299 112.660901 742.891584 105.87049 706.151441 104.944832 670.965897 109.822034 637.271745 114.693855 603.519765 123.491653 571.858959 136.263868 542.262434 149.002446 512.667256 164.943162 485.492728 184.057756 460.733478 203.199261 436.044154 224.015831 413.918037 246.479215 394.454636 265.950349 377.177894 283.598422 360.881516 299.329246 345.517091 315.091019 330.151319 328.192865 316.099424 338.693986 303.365442 351.432564 289.160239 362.711346 275.618027 372.460368 262.884045L625.439824 262.884045 625.439824 262.941872 625.439824 262.941872ZM506.278681 608.121696 452.229865 554.098085C444.751936 546.629026 439.485905 541.00773 436.525948 537.240923 430.545488 532.035173 422.64644 527.675307 412.928363 524.324047 403.17934 520.94589 394.92375 522.979239 388.164286 530.511507 382.209389 538.732314 380.686357 546.80654 383.675915 554.69787 386.697762 562.593236 390.046548 568.780696 393.813767 573.203767L410.653231 588.958189C418.910167 597.95764 427.912472 607.707495 437.635932 618.229268 448.909331 630.184608 461.29137 642.923969 474.751102 656.402977L473.615555 679.990901 397.135645 679.990901C390.40309 679.990901 384.574666 682.622688 379.729753 687.886265 374.820261 693.149844 372.429423 698.738863 372.429423 704.748808 372.429423 710.757408 374.641318 715.959123 379.16198 720.440022 383.675915 724.9263 389.688664 727.227267 397.167937 727.227267L473.646499 727.227267 473.646499 766.5723 397.167937 766.5723C390.43538 766.5723 384.601573 768.605651 379.755316 772.697899 374.85255 776.853354 372.460368 782.268894 372.460368 789.050759 371.714997 795.002878 373.747949 800.082215 378.652061 804.23767 383.496972 808.335298 389.688664 810.431854 397.167937 810.431854L473.646499 810.431854 473.646499 832.851142C474.393216 843.374259 477.803893 850.66984 483.784353 854.794365 489.766157 858.917546 497.276375 860.981826 506.30559 860.981826 515.307896 861.670366 522.608225 858.949821 528.232143 852.582157 533.823772 846.152632 536.666676 839.607454 536.666676 832.851142L536.666676 810.431854 615.358479 810.431854C622.837752 810.431854 629.029444 808.723948 633.93221 805.345791 638.778467 801.96898 640.811419 796.526544 640.066047 789.050759 640.066047 773.296337 629.595873 765.406353 608.569415 765.406353L536.666676 765.406353 537.769934 727.227267 610.839163 726.059972C621.371228 726.869547 628.850501 724.778371 633.333492 719.935719 637.821863 715.028516 640.066047 709.260637 640.066047 702.473394 640.066047 696.526655 637.668484 691.022357 632.765718 686.183739 627.919461 681.339743 620.204736 678.886814 609.735907 678.886814L536.666676 678.886814 536.666676 657.512442C549.348746 645.550379 560.984069 633.925862 571.479807 622.710168 580.483459 613.710715 589.485764 604.508197 598.457124 595.146993 607.459431 585.758891 614.224278 579.213711 618.738212 575.479181 635.966508 560.527611 639.702782 547.406324 629.953759 536.132801 624.750962 529.408764 617.991495 526.030607 609.735907 526.030607 601.478971 526.030607 593.974135 529.077941 587.241578 535.03006 583.505306 538.076048 577.134671 543.429729 568.069128 551.319713 559.066823 559.215079 550.063172 567.257028 541.091812 575.504734 530.592038 585.223658 519.018606 596.076254 506.278681 608.121696L506.278681 608.121696Z" fill="#515151" p-id="7760"></path></svg>