<?xml version="1.0" standalone="no"?><!DOCTYPE svg PUBLIC "-//W3C//DTD SVG 1.1//EN" "http://www.w3.org/Graphics/SVG/1.1/DTD/svg11.dtd"><svg t="1674191818601" class="icon" viewBox="0 0 1024 1024" version="1.1" xmlns="http://www.w3.org/2000/svg" p-id="3650" xmlns:xlink="http://www.w3.org/1999/xlink" width="200" height="200"><path d="M513.69 127.13c-222.51 0-402.93 180.42-402.93 402.93S291.18 933 513.69 933s402.93-180.42 402.93-402.94-180.33-402.93-402.93-402.93zM758 774.44a344.6 344.6 0 1 1 74-109.82 344 344 0 0 1-74 109.82z" p-id="3651" fill="#515151"></path><path d="M513.69 233.26c-164 0-296.8 132.84-296.8 296.8s132.84 296.8 296.8 296.8S810.49 694 810.49 530.07s-132.84-296.81-296.8-296.81z m149.3 304H485.54a29.71 29.71 0 0 1-29.68-29.68V330.22a29.68 29.68 0 0 1 59.36 0V477.9H663a29.68 29.68 0 0 1 0 59.36z" p-id="3652" fill="#515151"></path></svg>